<?xml version="1.0" encoding="UTF-8" standalone="no"?>
<svg
   version="1.1"
   width="24"
   height="24"
   viewBox="0 0 24 24"
   id="svg54"
   sodipodi:docname="logo_color.svg"
   inkscape:version="1.2.1 (9c6d41e, 2022-07-14)"
   xmlns:inkscape="http://www.inkscape.org/namespaces/inkscape"
   xmlns:sodipodi="http://sodipodi.sourceforge.net/DTD/sodipodi-0.dtd"
   xmlns="http://www.w3.org/2000/svg"
   xmlns:svg="http://www.w3.org/2000/svg">
  <sodipodi:namedview
     id="namedview56"
     pagecolor="#ffffff"
     bordercolor="#000000"
     borderopacity="0.25"
     inkscape:showpageshadow="2"
     inkscape:pageopacity="0.0"
     inkscape:pagecheckerboard="0"
     inkscape:deskcolor="#d1d1d1"
     showgrid="false"
     inkscape:zoom="34.458333"
     inkscape:cx="6.4135429"
     inkscape:cy="12.029021"
     inkscape:window-width="1920"
     inkscape:window-height="1007"
     inkscape:window-x="0"
     inkscape:window-y="37"
     inkscape:window-maximized="1"
     inkscape:current-layer="svg54" />
  <defs
     id="defs46">
    <linearGradient
       id="linearGradient3079"
       inkscape:swatch="solid">
      <stop
         style="stop-color:#2e3546;stop-opacity:1;"
         offset="0"
         id="stop3077" />
    </linearGradient>
  </defs>
  <rect
     style="stroke: rgb(46,53,70); stroke-opacity: 0; fill: rgb(224,221,213);"
     x="0"
     y="0"
     width="24"
     height="24"
     rx="3"
     ry="3"
     id="rect48" />
  <path
     d="M 10 22 C 9.75 22 9.54 21.82 9.5 21.58 L 9.13 18.93 C 8.5 18.68 7.96 18.34 7.44 17.94 L 4.95 18.95 C 4.73 19.03 4.46 18.95 4.34 18.73 L 2.34 15.27 C 2.21 15.05 2.27 14.78 2.46 14.63 L 4.57 12.97 L 4.5 12 L 4.57 11 L 2.46 9.37 C 2.27 9.22 2.21 8.95 2.34 8.73 L 4.34 5.27 C 4.46 5.05 4.73 4.96 4.95 5.05 L 7.44 6.05 C 7.96 5.66 8.5 5.32 9.13 5.07 L 9.5 2.42 C 9.54 2.18 9.75 2 10 2 L 14 2 C 14.25 2 14.46 2.18 14.5 2.42 L 14.87 5.07 C 15.5 5.32 16.04 5.66 16.56 6.05 L 19.05 5.05 C 19.27 4.96 19.54 5.05 19.66 5.27 L 21.66 8.73 C 21.79 8.95 21.73 9.22 21.54 9.37 L 19.43 11 L 19.5 12 L 19.43 13 L 21.54 14.63 C 21.73 14.78 21.79 15.05 21.66 15.27 L 19.66 18.73 C 19.54 18.95 19.27 19.04 19.05 18.95 L 16.56 17.95 C 16.04 18.34 15.5 18.68 14.87 18.93 L 14.5 21.58 C 14.46 21.82 14.25 22 14 22 L 10 22 M 11.25 4 L 10.88 6.61 C 9.68 6.86 8.62 7.5 7.85 8.39 L 5.44 7.35 L 4.69 8.65 L 6.8 10.2 C 6.4 11.37 6.4 12.64 6.8 13.8 L 4.68 15.36 L 5.43 16.66 L 7.86 15.62 C 8.63 16.5 9.68 17.14 10.87 17.38 L 11.24 20 L 12.76 20 L 13.13 17.39 C 14.32 17.14 15.37 16.5 16.14 15.62 L 18.57 16.66 L 19.32 15.36 L 17.2 13.81 C 17.6 12.64 17.6 11.37 17.2 10.2 L 19.31 8.65 L 18.56 7.35 L 16.15 8.39 C 15.38 7.5 14.32 6.86 13.12 6.62 L 12.75 4 L 11.25 4 Z"
     id="path50"
     style="fill:#2e3546;fill-opacity:1;opacity:1" />
  <path
     d="M 12.726 13.259 L 11.088 16.098 C 11.382 16.161 11.685 16.199 12 16.199 C 13.007 16.199 13.931 15.842 14.654 15.254 L 13.117 12.587 M 7.993 13.259 C 8.38 14.486 9.316 15.468 10.509 15.922 L 12.05 13.259 M 10.546 12 L 8.909 9.165 C 8.22 9.9 7.8 10.903 7.8 12 C 7.8 12.285 7.829 12.566 7.884 12.839 L 11.029 12.839 M 16.115 11.16 L 12.97 11.16 L 13.091 11.37 L 15.09 14.834 C 15.779 14.087 16.199 13.091 16.199 12 C 16.199 11.71 16.17 11.428 16.115 11.16 M 16.006 10.74 C 15.619 9.509 14.683 8.531 13.49 8.077 L 11.949 10.74 M 10.908 11.37 L 12.911 7.901 C 12.617 7.838 12.314 7.8 12 7.8 C 10.992 7.8 10.068 8.153 9.345 8.745 L 10.882 11.412 L 10.908 11.37 Z"
     style="fill:#2e3546;fill-opacity:1"
     id="path52" />
</svg>
